<?xml version="1.0" encoding="UTF-8"?>
<svg id="Layer_2" data-name="Layer 2" xmlns="http://www.w3.org/2000/svg" viewBox="0 0 91.15 233.61">
  <defs>
    <style>
      .cls-1 {
        fill: #f2e1bd;
      }

      .cls-2 {
        fill: #e6e6e6;
      }

      .cls-3 {
        fill: #fff;
      }

      .cls-4 {
        fill: #9f616a;
      }

      .cls-5 {
        fill: #3f3d56;
      }

      .cls-6 {
        fill: #2f2e41;
      }
    </style>
  </defs>
  <g id="Layer_1-2" data-name="Layer 1">
    <g>
      <path class="cls-6" d="M57.06,27.27l-24.18,4.09c-1.24,.21-2.43-.55-2.77-1.76-1.75-6.3-5.4-14.53-1.85-18.66,.38-3.61,3.52-6.28,7.15-6.07h0c4.32-6.76,11.51-5.75,16.38-1.52,4.89,1.69,6.74,4.69,6.09,8.76,2.11,1.85,3.22,3.93,3.46,6.22,.22,2.58-.67,5.12-2.46,6.99l-1.81,1.94Z"/>
      <path class="cls-4" d="M53.3,46.31l-18.74-1.1c1.84-4.22,2.57-8.28,1.84-12.13h13.97c-.03,2.96,1.44,8.07,2.94,13.23Z"/>
      <path class="cls-2" d="M30.74,219.51l-.77,10.51c-.13,1.84,1.25,3.45,3.09,3.58,.15,.01,.3,.01,.45,0l5.4-.33c.94-.06,1.66-.87,1.6-1.81,0-.1-.02-.21-.05-.31l-3-11.99-6.72,.34Z"/>
      <path class="cls-2" d="M48.21,219.17l-3,11.99c-.23,.91,.33,1.84,1.24,2.07,.1,.03,.21,.04,.31,.05l5.4,.33c1.84,.11,3.43-1.29,3.54-3.14,0-.15,0-.3,0-.45l-.77-10.51-6.72-.34Z"/>
      <polygon class="cls-1" points="55.28 220.97 48 220.24 40.75 142.71 38.01 219.99 30.85 219.73 18.79 112.7 64.87 112.7 55.28 220.97"/>
      <circle class="cls-4" cx="43.74" cy="23.62" r="13.92"/>
      <path class="cls-6" d="M59.43,16.97c-5.65-.98-11.2-1.12-16.6,.13-3.44,1.13-7.57,1.02-12.16,.09V7.81l24.8,.45,3.97,8.72Z"/>
      <path class="cls-3" d="M53.01,34.79c-6.09,2.53-12.47,2.43-19.12,0,1.93-3.3-.96-5.89-2.44-9.22l24.82-.74c-1.9,2.89-4.7,6.31-3.25,9.96Z"/>
      <rect class="cls-3" x="30.64" y="23.24" width=".38" height="3.18" transform="translate(-7.98 32.62) rotate(-50.19)"/>
      <rect class="cls-3" x="50.76" y="31.05" width="7.96" height=".38" transform="translate(-1.01 60.64) rotate(-57.52)"/>
      <rect class="cls-3" x="31.97" y="27.26" width=".38" height="7.96" transform="translate(-11.74 22.15) rotate(-32.47)"/>
      <path class="cls-1" d="M17.28,87.1l-10.66-6.62,9.09-26.62c1.01-2.75,2.96-5.05,5.49-6.52l3.06-1.77,.27,26.86-7.25,14.67Z"/>
      <path class="cls-1" d="M63.35,100.03l-1.58-13.51c-.08-7.13,1.13-14.02,4.02-20.37l1.47-19.85-16.17-6.62c-.05,.33-.09,.66-.14,.99l-7.58,3.79-7.39-1.68,.04-2.36-14.7,6.62c4.86,22.6,2.21,46.07-6.15,73.8l19.37,5.3,.16-9.3,17.26-1.23c.18,3.02,.32,5.98,.4,8.88,9.74,3.59,10.07,3.53,18.95-1.61-3.53-7.43-6.33-15.16-7.96-22.84Z"/>
      <polygon class="cls-1" points="88.21 83.8 78.29 80.49 62.42 62.01 67.26 46.31 89.31 77.18 88.21 83.8"/>
      <path class="cls-2" d="M57.11,98.1c.34,1.48,1.81,2.41,3.3,2.08l8.42-1.91-1.22-5.38-8.42,1.91c-1.48,.34-2.42,1.81-2.08,3.3h0Z"/>
      <path class="cls-1" d="M64.69,91.88l4.78,8.82c8.04-2.24,15-9.31,21.68-17.64l-1.84-5.88-11.39,2.94-13.23,11.76Z"/>
      <polygon class="cls-2" points="2.4 64.21 11.57 65.85 32.53 95.66 21.39 93.04 2.4 64.21"/>
      <path class="cls-5" d="M.77,63.85c-.43,0-.77,.36-.77,.79,0,.15,.05,.29,.13,.42l19.6,29.73c.11,.17,.28,.28,.47,.33l9.12,2.15c.42,.1,.84-.16,.94-.58,.05-.22,0-.44-.12-.63l-21.52-30.59c-.12-.17-.3-.28-.5-.32l-7.2-1.29s-.1-.01-.15-.01Z"/>
      <path class="cls-2" d="M12.99,85.11l.54,5.49,8.59-.85c1.51-.15,2.62-1.5,2.47-3.02s-1.5-2.62-3.02-2.47l-8.59,.85Z"/>
      <path class="cls-1" d="M5.52,84.47c.03,3.89,3.19,7.04,7.08,7.04h1.41l1.03-8.57-8.52-3.07-1,4.6Z"/>
      <polygon class="cls-3" points="55.58 25.78 55.31 25.51 55.72 25.11 58.15 22.27 58.44 22.52 56 25.36 55.58 25.78"/>
    </g>
  </g>
</svg>