<?xml version="1.0" encoding="UTF-8"?>
<svg id="Layer_2" data-name="Layer 2" xmlns="http://www.w3.org/2000/svg" viewBox="0 0 152.62 196.69">
  <defs>
    <style>
      .cls-1 {
        fill: #f2e1bd;
      }

      .cls-2 {
        fill: #e6e6e6;
      }

      .cls-3 {
        fill: #fff;
      }

      .cls-4 {
        fill: #3f3d56;
      }

      .cls-5 {
        isolation: isolate;
        opacity: .2;
      }
    </style>
  </defs>
  <g id="Layer_1-2" data-name="Layer 1">
    <g>
      <path class="cls-2" d="M7.24,196.69H145.38V29.13c0-8.87-8.74-16.09-19.48-16.09H26.72c-10.74,0-19.48,7.22-19.48,16.09V196.69Z"/>
      <path class="cls-3" d="M17.76,189.77h117.1V47.74c0-7.52-7.41-13.64-16.51-13.64H34.27c-9.11,0-16.51,6.12-16.51,13.64V189.77Z"/>
      <path class="cls-4" d="M6.19,0C2.78,0,0,2.29,0,5.11v14.76c0,2.82,2.78,5.11,6.19,5.11H146.43c3.41,0,6.19-2.29,6.19-5.11V5.11C152.62,2.29,149.84,0,146.43,0H6.19Z"/>
      <path class="cls-4" d="M34.98,171.55c-3.34,0-6.04,2.71-6.05,6.05h0c0,3.34,2.71,6.04,6.05,6.05h11.32v-12.1h-11.32Z"/>
      <path class="cls-1" d="M56.7,171.55h-11.01v12.1h11.01c3.34,0,6.04-2.71,6.05-6.05h0c0-3.34-2.71-6.04-6.05-6.05Z"/>
      <path class="cls-5" d="M60.65,173.04c.95,1.09,1.48,2.5,1.48,3.95h0c0,3.34-2.71,6.04-6.05,6.05h-10.39v.62h11.01c3.34,0,6.04-2.71,6.05-6.05h0c0-1.76-.77-3.42-2.1-4.57Z"/>
      <path class="cls-4" d="M86.09,80.43c-2.3-2.42-6.12-2.53-8.55-.25h0c-2.42,2.3-2.53,6.12-.25,8.55l7.77,8.24,8.8-8.3-7.77-8.24Z"/>
      <path class="cls-1" d="M100.98,96.23l-7.55-8.01-8.8,8.3,7.55,8.01c2.3,2.42,6.12,2.53,8.55,.25h0c2.42-2.3,2.53-6.12,.25-8.55Z"/>
      <path class="cls-5" d="M102.61,100.12c-.14,1.44-.8,2.79-1.86,3.79h0c-2.44,2.28-6.26,2.17-8.55-.25l-7.13-7.56-.45,.43,7.55,8.01c2.3,2.42,6.12,2.53,8.55,.25h0c1.28-1.21,1.96-2.91,1.88-4.66Z"/>
      <path class="cls-4" d="M53.85,99.5c-2.3-2.42-6.12-2.53-8.55-.25h0c-2.42,2.3-2.53,6.12-.25,8.55l7.77,8.24,8.8-8.3-7.77-8.24Z"/>
      <path class="cls-1" d="M68.75,115.31l-7.55-8.01-8.8,8.3,7.55,8.01c2.3,2.42,6.12,2.53,8.55,.25h0c2.42-2.3,2.53-6.12,.25-8.55Z"/>
      <path class="cls-5" d="M70.38,119.19c-.14,1.44-.8,2.79-1.86,3.79h0c-2.44,2.28-6.26,2.17-8.55-.25l-7.13-7.56-.45,.43,7.55,8.01c2.3,2.42,6.12,2.53,8.55,.25h0c1.28-1.21,1.96-2.91,1.88-4.66Z"/>
      <path class="cls-4" d="M86.09,117.26c-2.3-2.42-6.12-2.53-8.55-.25h0c-2.42,2.3-2.53,6.12-.25,8.55l7.77,8.24,8.8-8.3-7.77-8.24Z"/>
      <path class="cls-1" d="M100.98,133.07l-7.55-8.01-8.8,8.3,7.55,8.01c2.3,2.42,6.12,2.53,8.55,.25h0c2.42-2.3,2.53-6.12,.25-8.55Z"/>
      <path class="cls-5" d="M102.61,136.96c-.14,1.44-.8,2.79-1.86,3.79h0c-2.44,2.28-6.26,2.17-8.55-.25l-7.13-7.56-.45,.43,7.55,8.01c2.3,2.42,6.12,2.53,8.55,.25h0c1.28-1.21,1.96-2.91,1.88-4.66Z"/>
      <path class="cls-4" d="M105.75,155.07c2.39-2.33,2.46-6.15,.15-8.55h0c-2.33-2.39-6.15-2.46-8.55-.15l-8.15,7.87,8.41,8.7,8.15-7.87Z"/>
      <path class="cls-1" d="M90.13,170.16l7.92-7.65-8.41-8.7-7.92,7.65c-2.39,2.33-2.46,6.15-.15,8.55h0c2.33,2.39,6.15,2.46,8.55,.15Z"/>
      <path class="cls-5" d="M86.26,171.83c-1.45-.12-2.8-.77-3.81-1.81h0c-2.31-2.41-2.25-6.23,.15-8.55l7.48-7.22-.43-.45-7.92,7.65c-2.39,2.33-2.46,6.15-.15,8.55h0c1.22,1.26,2.93,1.93,4.69,1.83Z"/>
      <path class="cls-4" d="M62.33,135.99c2.39-2.33,2.46-6.15,.15-8.55h0c-2.33-2.39-6.15-2.46-8.55-.15l-8.15,7.87,8.41,8.7,8.15-7.87Z"/>
      <path class="cls-1" d="M46.71,151.08l7.92-7.65-8.41-8.7-7.92,7.65c-2.39,2.33-2.46,6.15-.15,8.55h0c2.33,2.39,6.15,2.46,8.55,.15Z"/>
      <path class="cls-5" d="M42.84,152.76c-1.45-.12-2.8-.77-3.81-1.81h0c-2.31-2.41-2.25-6.23,.15-8.55l7.48-7.22-.43-.45-7.92,7.65c-2.39,2.33-2.46,6.15-.15,8.55h0c1.22,1.26,2.93,1.93,4.69,1.83Z"/>
      <path class="cls-4" d="M124.17,112.97c2.39-2.33,2.46-6.15,.15-8.55h0c-2.33-2.39-6.15-2.46-8.55-.15l-8.15,7.87,8.41,8.7,8.15-7.87Z"/>
      <path class="cls-1" d="M108.55,128.05l7.92-7.65-8.41-8.7-7.92,7.65c-2.39,2.33-2.46,6.15-.15,8.55h0c2.33,2.39,6.15,2.46,8.55,.15Z"/>
      <path class="cls-5" d="M104.68,129.73c-1.45-.12-2.8-.77-3.81-1.81h0c-2.31-2.41-2.25-6.23,.15-8.55l7.48-7.22-.43-.45-7.92,7.65c-2.39,2.33-2.46,6.15-.15,8.55h0c1.22,1.26,2.93,1.93,4.69,1.83Z"/>
      <path class="cls-4" d="M110.43,160.68c-2.3-2.42-6.12-2.53-8.55-.25h0c-2.42,2.3-2.53,6.12-.25,8.55l7.77,8.24,8.8-8.3-7.77-8.24Z"/>
      <path class="cls-1" d="M125.32,176.49l-7.55-8.01-8.8,8.3,7.55,8.01c2.3,2.42,6.12,2.53,8.55,.25h0c2.42-2.3,2.53-6.12,.25-8.55Z"/>
      <path class="cls-5" d="M126.95,180.37c-.14,1.44-.8,2.79-1.86,3.79h0c-2.44,2.28-6.26,2.17-8.55-.25l-7.13-7.56-.45,.43,7.55,8.01c2.3,2.42,6.12,2.53,8.55,.25h0c1.28-1.21,1.96-2.91,1.88-4.66Z"/>
      <path class="cls-4" d="M67.67,160.02c-2.3-2.42-6.12-2.53-8.55-.25h0c-2.42,2.3-2.53,6.12-.25,8.55l7.77,8.24,8.8-8.3-7.77-8.24Z"/>
      <path class="cls-1" d="M82.56,175.83l-7.55-8.01-8.8,8.3,7.55,8.01c2.3,2.42,6.12,2.53,8.55,.25h0c2.42-2.3,2.53-6.12,.25-8.55Z"/>
      <path class="cls-5" d="M84.19,179.72c-.14,1.44-.8,2.79-1.86,3.79h0c-2.44,2.28-6.26,2.17-8.55-.25l-7.13-7.56-.45,.43,7.55,8.01c2.3,2.42,6.12,2.53,8.55,.25h0c1.28-1.21,1.96-2.91,1.88-4.66Z"/>
      <path class="cls-1" d="M79.7,138.32c0,4.15-2.92,7.72-6.98,8.55-1.15,.23-2.34,.23-3.49,0-4.72-.96-7.77-5.58-6.8-10.3,.7-3.43,3.38-6.1,6.8-6.8,1.15-.23,2.34-.23,3.49,0,4.06,.83,6.98,4.4,6.98,8.55Z"/>
      <path class="cls-5" d="M72.72,129.77v17.1c-1.15,.23-2.34,.23-3.49,0v-17.1c1.15-.23,2.34-.23,3.49,0Z"/>
      <path class="cls-1" d="M83.65,103.45c0,4.15-2.92,7.72-6.98,8.55-1.15,.23-2.34,.23-3.49,0-4.72-.96-7.77-5.58-6.8-10.3,.7-3.43,3.38-6.1,6.8-6.8,1.15-.23,2.34-.23,3.49,0,4.06,.83,6.98,4.4,6.98,8.55Z"/>
      <path class="cls-5" d="M76.67,94.9v17.1c-1.15,.23-2.34,.23-3.49,0v-17.1c1.15-.23,2.34-.23,3.49,0Z"/>
      <path class="cls-1" d="M83.65,153.45c0,4.15-2.92,7.72-6.98,8.55-1.15,.23-2.34,.23-3.49,0-4.72-.96-7.77-5.58-6.8-10.3,.7-3.43,3.38-6.1,6.8-6.8,1.15-.23,2.34-.23,3.49,0,4.06,.83,6.98,4.4,6.98,8.55Z"/>
      <path class="cls-5" d="M76.67,144.9v17.1c-1.15,.23-2.34,.23-3.49,0v-17.1c1.15-.23,2.34-.23,3.49,0Z"/>
      <path class="cls-1" d="M105.36,177.79c0,4.15-2.92,7.72-6.98,8.55-1.15,.23-2.34,.23-3.49,0-4.72-.96-7.77-5.58-6.8-10.3,.7-3.43,3.38-6.1,6.8-6.8,1.15-.23,2.34-.23,3.49,0,4.06,.83,6.98,4.4,6.98,8.55Z"/>
      <path class="cls-5" d="M98.38,169.24v17.1c-1.15,.23-2.34,.23-3.49,0v-17.1c1.15-.23,2.34-.23,3.49,0Z"/>
      <path class="cls-1" d="M124.54,133.01c2.99,2.88,3.53,7.46,1.31,10.96-.63,.99-1.46,1.85-2.42,2.51-3.97,2.73-9.41,1.72-12.14-2.25-1.98-2.88-2.05-6.67-.18-9.62,.63-.99,1.46-1.85,2.42-2.51,3.42-2.35,8.02-1.97,11,.91Z"/>
      <path class="cls-5" d="M113.54,132.1l12.31,11.87c-.63,.99-1.46,1.85-2.42,2.51l-12.31-11.87c.63-.99,1.46-1.85,2.42-2.51Z"/>
      <path class="cls-1" d="M127.17,152.08c2.99,2.88,3.53,7.46,1.31,10.96-.63,.99-1.46,1.85-2.42,2.51-3.97,2.73-9.41,1.72-12.14-2.25-1.98-2.88-2.05-6.67-.18-9.62,.63-.99,1.46-1.85,2.42-2.51,3.42-2.35,8.02-1.97,11,.91Z"/>
      <path class="cls-5" d="M116.17,151.18l12.31,11.87c-.63,.99-1.46,1.85-2.42,2.51l-12.31-11.87c.63-.99,1.46-1.85,2.42-2.51Z"/>
      <path class="cls-1" d="M48.88,156.69c2.99,2.88,3.53,7.46,1.31,10.96-.63,.99-1.46,1.85-2.42,2.51-3.97,2.73-9.41,1.72-12.14-2.25-1.98-2.88-2.05-6.67-.18-9.62,.63-.99,1.46-1.85,2.42-2.51,3.42-2.35,8.02-1.97,11,.91Z"/>
      <path class="cls-5" d="M37.88,155.78l12.31,11.87c-.63,.99-1.46,1.85-2.42,2.51l-12.31-11.87c.63-.99,1.46-1.85,2.42-2.51Z"/>
      <rect class="cls-5" x="17.43" width="3.29" height="24.34"/>
      <rect class="cls-5" x="36.51" width="3.29" height="24.34"/>
      <rect class="cls-5" x="55.59" width="3.29" height="24.34"/>
      <rect class="cls-5" x="74.66" width="3.29" height="24.34"/>
      <rect class="cls-5" x="93.74" width="3.29" height="24.34"/>
      <rect class="cls-5" x="112.82" width="3.29" height="24.34"/>
      <rect class="cls-5" x="131.9" width="3.29" height="24.34"/>
    </g>
  </g>
</svg>